<svg xmlns="http://www.w3.org/2000/svg" viewBox="0 0 1098.66 909.16"><defs><style>.cls-1{fill:#0b5494;}</style></defs><g id="Layer_2" data-name="Layer 2"><g id="Layer_1-2" data-name="Layer 1"><path class="cls-1" d="M1077.25,350.18c-5.22,10.83-9.46,22.11-15.32,32.62-15.55,27.88-36.32,51.34-60.43,72.09-37.53,32.3-80.3,53.95-128.69,64.55-45.71,10-89.84,4.43-133.16-12.27-39.93-15.38-77.36-35.64-114.12-57.23-46.11-27.08-90.86-56.28-132.84-89.5-32.22-25.49-59.34-56.1-85.09-87.89-37.26-46-73.54-92.78-113.25-136.76-22.07-24.44-44.4-48.59-68-71.61-3-2.93-5.89-6-8.75-9.05-1.3-1.38-2-2.94-.35-4.67s3.23-.87,4.75,0a14.52,14.52,0,0,1,2.53,2.12c49.31,46.08,94.13,96.39,138.29,147.3,30.68,35.36,59.45,72.41,92.79,105.43,2.31,2.29,4.73,4.47,7.48,7.05C482.47,277,506,245.17,528.89,213c1.61-2.25,2-8.7,8.39-4.7.72.45,5.75-5.78,8.66-9,7.23-8.09,14-16.61,22.57-23.41,1.06-.84,1.89-2.29,3.19-1.08,1.66,1.56-.11,2.8-1,3.86-35.51,41.34-67.88,85-98,130.45-1.84,2.77-5.9,5.34-2.79,9.82,5.29,7.61,7.4,7.76,12.32.06,29.19-45.72,61.67-88.93,98.77-128.54,11.89-12.69,24.85-24.34,37.47-36.31,7.76-7.37,15.75-14.73,23.87-21.43,4.6-3.8,8.7-9.72,15.33-11.33,3.46-.84,4.24-4.55,6.84-6.56C694.3,91.74,727.5,76,764.49,69c17.32-3.3,35-3.48,52.64-2.63,6.27.3,13.18.94,18.69,2.82,11.65,4,23.71,6.83,35,12,19.39,8.91,35.43,22,50.25,36.91a4.71,4.71,0,0,0,2.69,1.51c-14.9-19.52-34.47-33.3-55.91-44.84,9.62,2,17.54,7.5,26.11,11.66a119.9,119.9,0,0,0-31.85-18.09c-53.37-20.43-105.57-15.33-157,7.28-14.78,6.49-28.42,15-42.37,23-1.87,1.07-3.8,2-5.6,3-1-1-1-2.34-.43-2.61,10.79-4.85,19.33-13.26,29.74-18.71,1.46-.76,3.77-1.36,3.76-3.29,0-2.3-3-1-4.73-3.36,2.75,1,4.75-6.42,7.2,1,.66,2,4.64-.44,4.3-1.62-2.09-7.42,4.66-7.31,7.94-8.83a225.8,225.8,0,0,1,69.46-19.92c25.55-2.94,50.75-2.3,75.45,4.92,35.74,10.44,65.36,30.47,89.31,59,.56.67,1.12,1.36,1.74,2a5.91,5.91,0,0,0,1.12.7c1.55-1.43,0-2.33-.65-3.22-27.91-36.31-63.55-61.26-108.67-70.42-37.11-7.53-73.73-3.09-109.57,9.09C694.53,56.09,668.06,70,642.34,85.62c-2,1.21-3.57,3.37-6.85,3,4.37-6.43,10.74-10.32,16.51-14.5,46.73-33.84,98.59-52.32,156.8-50.28,29,1,55.89,9.79,81.93,22.4,25.57,12.37,44.66,31.93,63.45,53.08.41-3.65-2.12-5.5-3.63-7.36-34.22-42.27-78.19-68.12-132-76.11-29.34-4.37-58.53-1.12-87.3,6.09A347.07,347.07,0,0,0,592.53,92.47c-30.45,25.23-56.17,54.9-80,86.31-9.33,12.31-17.51,25.58-27.69,37.11-5.8,6.57-8.65,15.15-16,20.59-2-.95-1.46-2.37-.45-4.08,2.68-4.54,5.83-8.85,7.43-14,1.17-3.71,3.86-2.11,7-1.21-5.88-4.12-2-6.45-.19-9.58,14.57-25.65,32.71-48.72,51.58-71.22C580.18,81.69,635.59,40.1,703.66,16.77,746.88,2,791.48-3.51,836.87,2.25c115.17,14.62,193.9,78.21,239.94,183a255.62,255.62,0,0,1,18.09,147.37c-15.32,90.31-60.11,160.51-144.39,201.5-40.38,19.64-83.87,23.44-128.11,20.36-46.38-3.24-89.42-18.3-130.47-39A1381,1381,0,0,1,513.41,408.11c-41.19-29.29-78.32-63.2-112.52-100.38-44-47.79-86.67-96.76-133.68-141.68-27.31-26.11-55.83-50.87-84-76.06-5.56-5-11.56-9.47-17.32-14.22-1-.86-3.24-1.26-1.82-3.4,1.24-1.88,2.72-1.09,3.9,0,4.95,4.57,11.16,7.63,16,11.95,7.46,6.61,16.63,10.6,23.8,17.56,7.44,7.21,15.85,13.4,23.7,20.19q12,10.41,23.8,21.11,11.55,10.45,22.87,21.15,11.55,10.93,22.88,22.11,11.1,10.92,22,22,11.14,11.34,22.14,22.84,10.78,11.24,21.46,22.57,10.91,11.6,21.68,23.29c41.94,45.46,88.59,85.45,138.75,121.64a1267.62,1267.62,0,0,0,138.34,87c36.15,19.59,73.24,37.16,113.82,46,20.59,4.48,41.44,5.83,62.38,5.24,5.83-.16,12.44.41,17.25-1.17,4-1.3,9.3,1.26,12.7-3.64,1.84-2.66,4.86,2.34,7.83,1.39l.61-.23a1.6,1.6,0,0,0-.47-.31c-.9-.28-1.84-.79-1.46-1.79.74-2,2.76-1.53,4-1.08,2,.74,3.21,3.71,4.89-1,.95-2.62,4.61-1.39,6.07,3.19,1.19-6.17,3.45-9.17,8.63-6.85,1.74.78,2.34.55,2.73-1.12.1-.43.17-.87.3-1.29,1.62-5.18,5.53,5.71,7-1,1-4.38,3.55-5,7.18-2.6.58.38,2.2.77,2.16-.38-.29-8.25,2.08-2.86,4.09-.95.49.46,2.62.43,2-1.2-1.75-4.6-.07-3.26,2.84-2.19,4.51,1.65,7.56-2.75,11.52-3.86,3.34-.92-.72-3.61.31-6.23,2.62,4.61,5.82,4.28,8.95,1.25s8.08-2.95,10-7a3.21,3.21,0,0,1,3.43-2.19c4.84,0,5.49-2.37,2.2-7.69,4.88,2.88,8.34,4.05,10.67-.39-1.19-2.82-4.4.31-6-3,2.82,1.07,4.31-7.29,7.58.21,1.09,2.49,3,.34,4.13-.67,1-.84,3.09-2,.15-3.17-3.28-1.29-1-2.56.07-3.7,1.23-1.33,2.45-1.88,3.5.34,2.42,5.06,4.36,1.7,4.83-.79A17.83,17.83,0,0,1,998,466.67c2.53-2,4.15-7.63,9.16-2.76.81.78,4.18-.33,4.47-2.68.43-3.54-3.21-.89-4.57-2.76,2.22-1.82,2.33-8.75,7.56-2.28.66.81,2.63.06,3.38-1.18s.4-2.42-.61-3.57c-.75-.86-3.75-.59-1.78-3,1.2-1.48,2-.89,3.65,0,5.83,3.2,5.42-3.34,8-5.36-2.09-.14-3.76,2.5-5.77.22-.71-.8-.28-1.55.24-2.35,2.12-3.27,4.9-1.88,7.91-.35-.29-3.32-2.58-6.2.91-8.1,2.42.49-.57,4.72,2.38,4.06,2.21-.49,2.82-2.45,1.22-5.2-1.16-2-.55-5.32,3.65-3.64.49.2,1.21-.2,1.82-.32-1.06-5.07,4.6-6.92,5.3-11,.44-2.55-.45-5.77,4.06-4.45a1.54,1.54,0,0,0,2-1.28c1-9.92,8.66-16.44,12.69-24.81A201.75,201.75,0,0,0,1077.25,350.18ZM606.94,297.62a2.61,2.61,0,0,0,3.94-1.94c.49-2.74-2.86-2.72-4-4.39.85-.22,2.11-.9,2.49-.57,3.2,2.78,5.19,1.18,7.38-1.46,2.61-3.16,4-6.22,1-9.85,1.82.63,3,4.72,5.14,2.15,3.37-4.07,8.44-7,9.59-12.71,6.33-4.8,12.18-10,15.81-17.31,1.42.56,3,.19,3.52-.95,2.16-5.13,6.8-8,10.41-11.75,16.73-17.28,34.07-33.89,54.36-47.09,16.06-10.45,32.84-19.45,50.93-25.95A143.54,143.54,0,0,0,730,179.36c-5.8,3.08-10.49,10.22-18.88,6.43.36,2.13,3.45,2.3,1.86,4.29-.87,1.09-2.41,2.62-3.94,1.15-3.22-3.08-4.66,0-7,1.21,1.4,1.43,4.55.67,3.77,2.52-1.73,4.11-4.07-1.18-6.28-.28,1.8,5.74.3,7.43-5.45,6.55-1.22-.19-3.29-.22-3.69.44-4.86,8.12-12.78,12.78-20.06,18.17-1.4,1-1.39,1.82-.14,3.09,1.75,1.8-.77,2.49-1.35,3.64-.32.63-1.85,1.11-1.85-.22,0-4.69-1.73-1.88-2.82-.67-1.78,2-4,3.85-4.88,6.2-1.58,4.05-4.23,4.07-7.48,2.78l2.84,8.31c-7.08-.66-9.1,2.42-6.27,8.71-2.07.09-3.53-2.69-6-1.11s-2.46,3.78-3.06,6.42c-.73,3.28-4.86-2.19-6.38.2-1.73,2.72-5.09,4.23-5.62,7.75-4.83,3.78-8.28,8.46-9.48,14.6-7.39-1.37-6,2.07-2.69,6.33-8.94-1.62-10.08-.74-8.13,5.57-5-1.71-5.21.41-3.28,4.18-1.37-1.08-2.75-2.3-4.31-.31-1.09,1.39-2,2.69-.41,4.5a33,33,0,0,1,3,4.87c-2.52.36-4-1.41-5.8-2.68-.69-.5-1.63-1-2.29-.14-.47.64-1,1.94-.68,2.35,1.53,2,3.1,5.09,5.09,5.46,2.23.41,3.68-2.47,3.48-5.19C606.13,304.16,606.45,300.83,606.94,297.62Zm-6.64,37.29c7.2-1.76,8.58-9.23,12.42-13.88,13.39-16.24,26.83-32.42,40.51-48.42,6.44-7.52,12.74-15.16,19.11-22.75-1.34-.41-2-.2-2.35.22-24.29,25.19-46.58,52.11-68.49,79.36a6.42,6.42,0,0,0-1,5.64c-.86-.07-2.2-.52-2.49-.15-5.26,6.73-10.41,13.54-15.53,20.38a1.35,1.35,0,0,0,.75,2.11,2.71,2.71,0,0,0,2.34-.36,23.83,23.83,0,0,0,3-4.2C592.1,346.66,598.47,342.27,600.3,334.91Zm96.83-159.09c-2.13-.38-4.38-.27-5.83-2.48-1.17-1.77-2.19-5.23-5.1-2.2-2.32,2.41.12,3.83,2,5s2.39,2.85.74,4.31c-2,1.75-2.63-.71-3.35-1.72-2.47-3.43-4.45-3.86-8.15-.91-8.23,6.57-16,13.68-23.84,20.64a487.57,487.57,0,0,0-40.91,40.16c-10.49,11.75-20.11,24.22-30.13,36.35-14.16,17.13-26.58,35.52-40,53.18a4.3,4.3,0,0,0-.39,4.38c-1.12-.3-2.4-.38-3,.66-5.23,8.88-11.62,17.15-14.7,27.27,2.31-2.23,4.81-4.57,5.74-7.41.78-2.41,4.41,3.45,4.21-2.4-.12-3.63,5.3-7.65,7.78-11.85.78-1.31,2.18-.6,2.59,1.2.51,2.24,2.07,2.16,3.37.82a2.14,2.14,0,0,0-.85-3.72c-2.54-.86-3.51-3.17-5.29-4.69,2.1.45,4.45.47,6.22,1.5,1.54.89,2.87,2.76,4.2.59,1.12-1.82-.31-3.12-2.31-3.83-1.15-.41-2.61-1.91-1.65-3,1.57-1.72,2.8-.82,3.72,1.31.77,1.78,3.77,1.3,3.66.42-.49-4,3.16-4.73,4.93-6.29,3.18-2.8,3.07-4.27-.42-6.06-1.19-.61-2.46-1.06-2.19-2.81a1.89,1.89,0,0,1,1.73-1.65c2.06-.44,1.76,1.4,2.46,2.34,1.06,1.44,2.89,4.53,4.16,1.48,2.24-5.37,7-8.36,10.06-12.86,1.73-2.58,2-4.49-1.41-5.46-1.8-.51-3.16-1.27-1.64-3.05,1.29-1.5,2.67-.88,3.59.89,2.09,4,3.58,2.25,5.56-.36,4-5.31,8.18-10.57,12.71-15.45,5.44-5.86,5.22-7.53-2.34-9.82a5.21,5.21,0,0,1,3.84-3.88c2.07,1.61,1.62,9.73,6.26,3.69a261.58,261.58,0,0,1,21.48-24.42c2.29-2.31,2.06-4.06-.62-5.71-1.15-.7-3.5-.36-2.74-2.76.2-.65,1.18-1.23,1.93-1.51,3.09-1.16,2.26,1.78,2.89,3,1.44,2.78,2.83,3,4.88.55A351.57,351.57,0,0,1,695.57,180a3.79,3.79,0,0,0,1.95-3.81,8.86,8.86,0,0,0,5.44-1.85,189.36,189.36,0,0,1,43.21-23.9c28.9-11,58-14.7,87.45-2.07,7.13,3.07,14,6.78,21,10.2-21.2-16.8-45.36-24.17-72.18-21.92-5.9.5-12,.61-17.69,3.75-1.81,1-5.83-2.62-6.89,2.38-2.9-1.79-6-4.75-6.38,2.06,0,.82-2.57,1.43-4.12.38-1.18-.8-1.91-2.5-3.85-2-1.27,1.43,4,3.62-.62,4.77-8.55,2.15-16.11,6.59-23.86,10.61-1.85,1-4,2.79-5.17-.76-.76-2.29-1.85-1.57-3.49-.85-6,2.65-11.41,5.56-7.64,13.7-3.85.34-5.39-2.31-7.67-3.47-1.52-.78-2.54-.56-3.31.74s.39,2.08,1.3,2.48C695.42,171.52,697.16,173,697.13,175.82Zm307.26,93.77.19.18c-.2-3.56-1.27-7.35,2.58-9.82,1.94.05,1.69,4.7,4.06,2.51,1.88-1.75,0-3.37-2.21-4.17-1.22-.43-1.08-1.78-.74-2.87,1-3.32,1.94-6.68,3.14-9.93,4.39-11.86,7.51-24,8.36-36.65,1-14.05.41-28-2.82-41.75-.32-1.32-.19-2.85-1.9-2.9s-1.74,1.64-1.88,2.88a37.52,37.52,0,0,0-.12,4c-.67,54.61-19.75,102.15-55.14,143.41-20.75,24.19-45.38,43.83-72.12,60.91a297.67,297.67,0,0,1-42.88,22.7,207.69,207.69,0,0,1,16.8-12.78c31.16-21.55,60.69-45,85.26-74.1,27.56-32.6,46.73-69,48.64-112.8a148.65,148.65,0,0,0-14-70.07c-1.24-2.66-1.74-6.54-6.43-7.2,1.28,6.07,2.42,11.78,3.67,17.47,6.79,30.9,7.78,61.8-1.16,92.42-9.3,31.86-27.55,58.64-49.61,82.84-22.52,24.7-49.1,45.07-73.65,67.61-31,28.5-66.88,48.06-106.21,62-6.23,2.21-12.42,4.5-18.63,6.76a35.77,35.77,0,0,0,12.4-.14c4.91-.95,9.67-2.69,14.58-3.73,3.73-.8,7.74,3.57,11.64-1.07,1-1.23,5.55,3.41,7.43-1.55.2-.52,2.1.24,2.69,1.2a2.58,2.58,0,0,1-.39,3.59,11.41,11.41,0,0,1-3.56,1.67,248.19,248.19,0,0,1-36.61,8.28c-9.12,1.39-18.32,2.29-28,3.47,2,2.14,3.85,1.62,5.52,1.74,24.09,1.7,48.15.81,72.1-1.62,10.9-1.1,22.14.3,32.72-3.78,1.16-.44,2.11.28,2.43,1.55.4,1.59-.24,2.51-1.85,2.8s-3.45.73-5.19,1l-49.34,7.68a24.61,24.61,0,0,0,9.34,1.88c26.55,1.1,53-.45,79.39-3.2,2.27-.24,5.09-1.67,5.67,2.1s-3.06,2.74-4.56,3c-33.87,6.2-68,7.2-102.31,5.1-13.61-.83-27.15-2.79-40.72-4.23a139.62,139.62,0,0,0,39.18,10.44,285.18,285.18,0,0,0,79.21-1.46,243.6,243.6,0,0,0,54.17-14.51c2.87-1.16,8.13-1.42,5.18-7.51-1.14-2.35,2.22-2.68,3.77-3.66.73-.46,1.75-.88,2.25.16.85,1.75-.3,2.8-1.59,3.83a2.8,2.8,0,0,0-1,3.39c2.49-1.39,7.49.91,5.6-5.58-1.39-4.76,3.55-4.72,6-6.41.92-.65,3.13-.94,3.27.78.29,3.54-3.13,2-4.79,2.91-1.18.68-1,1.92-.79,2.94.36,1.68,1.66,1.28,2.53.65,2.83-2,7.93-2.31,5.47-8.32-1-2.44,2.25-3.33,4.25-4.14,1.29-.52,2.93-.63,3.33,1,1,4.05-2.52,0-3.17,1.67a7.21,7.21,0,0,0-.14,5.53c2.71-3.05,8.81-2.71,6-9.5-.9-2.17,2.89-3.37,4.87-4.63.79-.51,1.76-.59,2.12.51.91,2.77-2,3-3.11,4.41a2.18,2.18,0,0,0-.16,2.89c2.73-1.59,7.23-1.68,7-5.9-.16-3.08-1.21-6.64,2.61-6.39s-1.21,4,1.7,6.6c.82-2.29,6.9-1.33,2.31-6.55-1.09-1.23.14-2.43,1.28-3.25l16.87-12.12c1.36,1.91-1.39,4.33.94,5.6,1.81,1,2.68-.91,3.79-1.84,2.91-2.45-.09-3-1.29-4.26-.35-.36-.58-1.44-.36-1.65,3.46-3.19,6.06-7.83,11.71-8.08.62,3-2,3.06-2.54,4.86-.66,2.17-6.74,1.78-4.54,4.63,1.92,2.51,4.55-2.4,7.22-3.35.72-.25,1.24-1.22,1.73-1.94,1.54-2.28,6.34-4.31.48-7.21-1-.51-.73-2.12.17-2.9s1.91-1.9,3.42-1.27c1.09.46,1.88,1.09,1.3,2.48a2.1,2.1,0,0,0,1,3c3.44-3.57,8.7-5.7,9.19-11.74,4.08-.75,7.07-2.93,8.34-6.93.35-1.08-1.11-1.34-1.88-1.1-3.95,1.27-5.79,4.24-6.26,8.21-2.1-.21-3.91,0-4.66,2.46-.36,1.17-1,3.13-2.5,2.2s-.2-2.38.31-3.84c2.06-5.86,10.41-6.39,11-13.49.09-1.06,3.28-1.53,4.12-.46,5.66,7.26,5.33-1.33,7.65-2.77l-.17.2c1.48-2.83,8.54-4.13,2-9.18-2.27-1.75,1.36-3.61,2.28-5.41,1.12-2.18,2.43-1.05,3.73-.09.87.64,1.21,3,2.8,1.44,1.24-1.19,1.08-2.77-.73-3.8-3.74-2.12-.39-3.32.64-4.88,1.56-2.36,4,.8,5.65-.7,0-2.51-4.76-1.55-3.13-5,.5-1,1.22-2.6,2.08-2.16,4.52,2.32,3.17-1.63,4.18-3.42,1.31-2.36-1.68-8.58,5.25-6.31.09,0,.66-.71.59-1-1.35-5.07,1.78-5.23,5.4-4.25-.3-3.11-5.2-3-3.44-6.2,1.5-2.74,4.58.24,6.94-.69-.64-2.63-5.17-1.43-4.12-4.37,1.2-3.36,4,.68,5.86-.19.18-3.19-4.71-3-3.61-5.92.86-2.29,3,.38,4.53-.34.38-1.68-3-2.08-1.51-3.78s2.53,2.57,4.44.63c-.09-3-4.78-4.55-3.12-7.44,1.88-3.26,4.15,2.82,6.68.62-3.87-3.26-4.59-9-.92-10.1,2.63-.8,2.58-1.15,1.56-3-2.47-4.53.3-5,3.75-4.63.93-2.73-4.65-4.52-1.76-6.18,7-4-.57-4-.51-7.7C1009.5,390.91,904.31,450.8,831.85,459.25c-.14-2.85,2.75-4.92,3.91-4.26,3.29,1.86,5.6-1.76,6.3-1.51,5.33,1.9,7.5-3.49,11.46-4.25.21,0,.6-.07.64,0,3,6.2,3.58.37,5-1,1.66-1.58,3.76-2.08,5.82-2.87,9.06-3.48,18.27-6.65,26.44-12.05,1.73-1.14,4.33-2.28,3.24-5-2.3-5.8,2.35-4.94,5-6.74.48,2-.35,2.41-1.1,2.84-1.91,1.08-2.94,2.66-2.45,4.89.1.47.88,1.2,1.25,1.14,2.32-.34,3.89-2,5.17-3.75a3.88,3.88,0,0,0,.26-2.53c-.67-4.85,2.79-6.09,6.15-7.86,1.69,4.31-4.83,4.92-2.92,9.35,14.83-9.94,29.73-19.39,43.76-30.19,5.06-3.89,3.63-5.92-1-8v0c6.09-3.73,11-9,16.41-13.72,1.38,1.9-.76,4.76,1.83,5.43,2.24.59,3.37-1.76,4.5-3.16,1.77-2.18.66-3.41-1.89-4.06-2.38-.61-.9-1.85-.09-2.76,2.19-2.46,4.17-5.19,7.55-7.12-.85,5.3-.82,6.51.17,6.57,2.68.16,3.56-2.27,4.74-3.92s3.45-2.91,2.83-5.53l-.21.22c8.25-4.92,11.92-13.8,17.84-20.73.58-.69.55-1.87-.67-2-6.21-.64-2.91-3.61-1.16-5.52,4.45-4.89,8.45-10,10.84-16.25,1.46-3.84,3.91-4.49,6.83-1.15-5.81,4.72-14.28,18-13.32,22.22,4.83-7.76,10.08-14.4,13.17-22.4l1.29-1.06c-4.47-4.24-4.31-7.95,1.18-11.18.32-.19.19-1.25.15-1.9-.26-4.46,2.24-6,6.62-5.17-1.18-2.32-4.95-.66-4-2.94,1.29-3.19,2.07-7.93,8.75-6.25-4.66-3.18-4.82-3.36-1.64-6.1,1-.91.59-1.26.32-1.91-1.12-2.66-1.82-4.89,2.2-5.9,1.41-.35,1.74-2.44.49-3.91-.8-1-2.76-2.35-1.39-3.07,5.62-3,2.45-8.79,4.62-12.93a36.33,36.33,0,0,0,3.58-15.47c0-5.47-.11-10.62,1.67-15.84a2.59,2.59,0,0,0-2.07-3.55c-2.14-.35-1.47,1.58-1.7,2.7-2,9.6-3.4,19.38-6.12,28.77C1017.6,297.7,987.32,336.91,948.38,370c-18.26,15.5-37.77,29.12-60.19,38.58-7.57,3.19-15.93,5.21-22.65,9.79-4.66,3.17-11.21.06-14.55,5.69a1.86,1.86,0,0,1-2.92,0c-1-1.17.21-1.82.76-2.73,2.09-3.46,6.43-1.75,8.66-3.59,6.69-5.54,14.54-9.12,21.93-13.3a359,359,0,0,0,71-52.32c4.51-4.29,10.12-7.92,12.27-14.34l-.24.23c4.83-1.93,6.54-6.84,9.76-10.33,2.2-2.76,4.5-5.44,6.55-8.3,1-1.39,3.72-3.27,1.21-4.8-3.64-2.21-2.93,1.23-3.22,3.23-.08.49-.77,1.06-1.3,1.29-4.24,1.83-4.31,5.06-3.06,8.78-.84-2.25-8.36,1.17-4.44-4.78,3.74-5.69,9.33-10,12.38-16,3.55,1.54-.46,5.32,3.48,6.28,3.11-6.05,9-10.5,10.24-17.79l-.2.21c7.05-6.23,8.78-15.68,13.88-23.14C1009.82,269.63,1005.31,270.93,1004.39,269.59ZM798.73,183.36C776.17,183,753.2,195.19,733,213.57c-24.56,22.33-43.68,49.06-61,77.11-24.53,39.63-45.49,81.22-67.09,122.47-2.79,5.32-1.68,7.51,2.84,10.1,9.75,5.6,20,10.59,28.84,17.47,11.36,8.89,23.72,9.29,36.85,7.94,1.75-.18,3.5-.45,5.26-.6,61.36-5,115.63-28.27,162.92-66.67,37.29-30.27,55.88-70.1,49.29-119.17C884.51,214.93,849.26,183.13,798.73,183.36Zm106.38-53C895,117.6,882.24,107.92,868,100.53,823.21,77.3,776.73,75,729.51,91.93c-45.63,16.36-82.81,45.6-117.17,78.95-48.33,46.9-87.26,101.25-125.13,156.5-5.08,7.41,1.57,8.79,4.7,11.57,4.41,3.91,4.83-1.9,6-3.72C535.4,278.72,577.35,226,626.26,178.8c29.9-28.83,61.89-54.77,100-72C763.53,90,802.37,86.63,842.11,96.39,866,102.25,886.57,114.34,905.11,130.4Zm-144-15.47c-.31-2.48,3.11-1.75,2.17-4.07-.4-1-1.4-1-2.25-.85-1.65.27-3,1-2.86,2.95.12,1.38.23,2.6-1.14,3.49-1.2.77-3.42,1.14-3.27,0,1-7.88-2.67-3.73-6.11-3-24.12,5.29-45.73,16-66.06,29.66-24.52,16.42-45.59,36.86-65.81,58.1-40.3,42.33-75.64,88.64-108,137.24-6.15,9.23-6.08,9.28,2.41,16.8.26.23.73.21,1.15.32l5.6-8.18c44.8-65.6,94.75-126.63,155.62-178.27,17.54-14.89,36-27.92,56.78-37.76,11.71-5.53,23.74-10.11,36.35-12.74,11.24-2.34,22.22-4.72,34.21-4.63,30,.21,56.43,8.52,80.21,26.26,4.67,3.48,9.15,7.21,14.22,11.23-.61-3.11-2.52-4.36-4-5.8-28.21-26.72-62-38.61-100.57-37.6-4.08.11-8.44-.55-8.55,5.49-3.13-1,1.85-5.28-3-5.25-3.22,0-2.88,1.73-2.66,3.81.1,1-.35,1.78-1.49,1.5-1.32-.32-3.32.11-2.5-2.63.74-2.5-1.46-1.39-2.41-1.39s-2.42-.36-1.94,1.54C769.16,119,763.43,113.87,761.16,114.93Zm266.63,284.7c-3.18-1.34-4.07,2.81-6.28.63-.78-.78-1.6-2.61-.93-2.84,3.45-1.23,5.84-4.74,9.68-4.74,1.24,0,2.52,1,3.37-.53.72-1.28-.49-1.87-1.25-2.64-2.56-2.58-1.54-3.95,1.66-3.92,4.36.05,5.11-.74,1.62-4-2.79-2.62-.21-4.26,2-5.13,1.53-.61,3.44-.29,6.11-.44-4.35-2.3-5.14-5.9-1.54-7.57,4-1.84,1.93-6.2,4.86-7.77.83-.44,1.23.9,1.83,1.45,1.67,1.52,2.3-.17,2.63-1.29s2.41-2.66.34-3.91c-1.49-.9-1.21,2.38-2.95,1.71,0-5.67,0-5.67,6.86-7.81-2-1.5-4.71-1.73-5-5.32a211,211,0,0,1-16.55,26.69c-23.84,31.91-53.07,57.73-86.74,78.71-53.43,33.29-112.14,45.85-174.42,44.6-3-.06-8.21-3.17-8.69.63s5.08,1.85,8,2.53c15.37,3.56,31,4.39,46.66,5,4.06.15,9.4-2.7,12.51,2.82a2.14,2.14,0,0,0,1.55-.17c.63-2.22,1.88-3.54,4.26-2.75,2.75.91.48,3.49,1.47,5.16.81,1.39,1.61,2,3.1,1.67,1.8-.42.92-1.18.4-2.21-.78-1.56-1.45-3.5.61-4.6a4.39,4.39,0,0,1,4.45.38c2.65,1.76-1.84,3-.3,5.1,2.37-.6,6.52.92,5-4.2-.74-2.43.27-2.67,2-2.86,2.64-.29,3,1.08,2.29,3.21-.56,1.62-.77,3.25,1.53,3.38a3,3,0,0,0,3.41-3.19c0-1.63-2.47-4,1.31-4.45,3.13-.38,2.9,1.84,2.9,3.88,0,1.11.13,2.38,1.64,2.27,1.09-.08,2.54-.77,2.27-1.92-1.7-7.18,3.61-6.42,7.78-7.28,2.15-.44,4.31-1.73,6.3-.23,2.69,2-2.72,3.31-.58,5.64,3.08-1,5.78-2.2,4.36-6.39-.58-1.7.49-2.33,1.84-2.86s2.53-1.56,3.7-.72c2.76,2-1.88,4.14.36,7,1.36-1.82,5-.34,4.07-5.15-.93-5,2.94-4.95,7.16-5-.7,2.72-4.57,3.49-2.13,5.62,1.22,1.06,3.3-.09,3.36-1.83.21-6.78,6.37-6.94,10.3-9.5,1.6-1,3.76-2.13,3.52,1.74-.15,2.35,1.66,2.23,3.25,1.48,1.34-.63,3.53-1.48,2.06-3.22-3.11-3.65-.34-4.22,2.18-5.36a36.3,36.3,0,0,0,4.46-2.77c2.31-1.5,4.79-4.44,6.16.89a1.39,1.39,0,0,0,2.09.86c1-.49,2.24-1.46,1.55-2.49-2.37-3.53-.4-6.3,2.49-6.23,5.15.1-1.43,4.17,2.05,6.15.82-2.05,6.58-1.36,2.31-6.24a1.72,1.72,0,0,1,.52-2.8c.53-.27,1.67-.42,1.82-.17,4.61,7.35,7.12-1.19,10.67-1.62,1.81-.22,3-3.06,1.53-5.49-.76-1.28-3.61-2.51-1-4.06,2.74-1.64,3.84.4,4.11,3,.2,1.91,1.64,2,2.87,1.25s3.07-2.25,1.44-3.65c-5.89-5.08-.61-5.5,2.63-6.78a9.45,9.45,0,0,0,5.85-5.78c.73-2,1.62-2.05,3.36-.66,4.86,3.88,7.41,2.67,9.15-4.3-2.58-.1-2.93,2.38-4.32,3.49s-3.06.29-2.83-1c.57-3.12,3.9-4.55,5.41-7.38.75-1.4,2.9.75,3.55,2.54.35.95.39,2.44,2,1.87a3.55,3.55,0,0,0,1.76-1.82c.61-1.44-.79-1.62-1.6-2.3-1.3-1.08-3.48-1.4-4.23-4.86,3.9,2.8,6.4-1.6,10.23.42,2.35,1.24,5.79-4.48,4.24-6.91-.78-1.22-2.66-2.22-1-3.85,1.82-1.82,3.71-.23,4.33,1.1,1.19,2.55,2,1.55,3.16.23s1.14-2.88-.44-3.16c-3-.55-4-1.61-2.18-4.32s3.32-1.1,4.57.57c.93,1.24,1.82,2.18,2.9.41.67-1.08,2.75-2.58.23-3.67-2.11-.92-2.83-2.08-1.73-4,.62-1.11,1.49-2.39,3-2.3,2.86.16.82,3.41,2.8,4.64ZM931.52,248.1c-9.38,34.62-27.13,65.26-45.34,95.69C913.17,317.54,927.75,285.39,931.52,248.1ZM888.88,27.77c60.37,30.37,104,72,111.31,142.73C1007.05,120.8,942.78,38,888.88,27.77ZM483.17,371c32.61,31.44,69.69,56.74,107.81,80.62l.94-1.29ZM941.85,278.3c15.46-30.92,20.83-63.2,13.31-97.23C959.29,214.64,952.65,246.75,941.85,278.3Zm116.46-32c-4.24,10.49-5.1,22-9.4,32.57-.85,2.07,1.82,2,3.07,2.48s2.54-.65,1.85-1.62c-3.28-4.67,1.24-8.79,1.8-12.73C1056.59,260.28,1056.06,253,1058.31,246.28ZM591.54,318.09a59,59,0,0,0-5.39-4c-1.54-.92-2.31.38-2.84,1.68-.87,2.1-4.61,3.67-1.29,6.53,1.54,1.33,2.27,5.22,4.42,3.78,2.81-1.88-.66-3.47-1.82-5-.63-.85-1.78-1.78-.64-2.75,1.5-1.27,2.33.25,3,1.28s1.31,2.46,2.94,1.43C590.41,320.71,590.57,319.92,591.54,318.09ZM596.6,312c-2.92-.52-2.53-4.82-5.64-5.26-2-.28-3.51,2.53-3,3.54a16.74,16.74,0,0,0,5.16,5.83C593.58,316.48,596.06,314.67,596.6,312Zm358.74,77.66c4-.95,5.43-4.46,8.07-6.48a1.78,1.78,0,0,0,.25-2.8,7.37,7.37,0,0,0-2.07-1.27C959.7,382.6,954.1,383.89,955.34,389.68ZM568.79,337.35c-1,1.39-4.12,1.52-3.41,3.34.65,1.66,3,3.27,4.79,3.69,1.61.36,3.14-1.85,2.94-3.51C572.85,338.8,570.59,338.2,568.79,337.35Zm384.43,94.18c-.68-.77-.55-2.88-2.56-1.35-3,2.26-5.38,5.24-9,6.78-.75.32-.79,2,.34,2.72C942.92,440.24,953.17,432.68,953.22,431.53Z"/><path class="cls-1" d="M941.51,842.47a9.86,9.86,0,0,1-7.5-.78c-40.76-20.48-79.12-44.91-115.61-72.12-41.59-31-82.43-63-123.76-94.4a341.43,341.43,0,0,0-48.89-30.38,20.14,20.14,0,0,0-8.12-2.56c1.47,1.55,2.82,3.22,4.41,4.62,49.05,43.27,95.58,89.27,144.16,133,20.69,18.63,42.64,35.76,64.78,52.65,3,2.3,9.54,4.71,6.52,8.8-3.48,4.7-7.68-1.14-10.92-3.39C801.26,806.47,761,769,720,732.34c-28.48-25.47-57.55-50.29-86.37-75.38-1.47-1.27-3.05-2.41-5-3.92-7.29,15.48-14.52,30.57-22.64,45.21-27.64,49.86-61.23,94.92-104.81,132.18-43.37,37.1-92.56,62.7-148.74,72.92-96.28,17.52-182.5-4.13-255.61-70.68C44.59,785.14,13,726,3,656c-9.44-65.88,2.76-127.12,43.45-181.17,27.53-36.57,62.7-62,108.17-71.24,36.52-7.39,72.48-4.25,107.69,8,52.41,18.22,101.57,43.05,148.34,72.71,51.45,32.64,102.41,66,155.42,96.15,55.86,31.75,112.52,62,169.75,91.13,32.34,16.47,62.93,35.83,93.08,55.88,37.4,24.87,76.51,46.71,116.21,67.58,2.34,1.23,4.69,2.47,7,3.76,1.6.89,3.18,1.95,2.14,4.13s-3,2-4.62,1.33c-5.71-2.34-11.43-4.71-16.93-7.49-40.6-20.56-80.3-42.67-118.23-67.9-17.07-11.35-34.78-21.74-52.28-32.45-2.12-1.31-4.23-3.07-8.17-3.24,11.65,10,23.28,18.26,34.35,27.25-30.6-17.68-58.72-39.23-90.38-55.21,8.84,6.74,17.53,13.68,26.55,20.17,35.32,25.42,68.44,53.67,103.28,79.71S899,814.38,936.12,836.61c2.2,1.32,5.77,1.53,5.81,5.33C941.78,842.11,941.64,842.29,941.51,842.47Zm-825.83-324c3.3-.33,7-1.06,8.62-3.8,5.06-8.36,12.93-13.5,20-19.7,4.2-3.67,8.68-7.18,12.61-11.21.78-.81,2.53-1.5,1-3.07-1.15-1.15-1.78-.2-2.63.6-8.64,8.11-18.92,14.29-27.1,22.95,0-4.44,2.53-7.29,6-9.48,5.89-3.7,10.33-9.16,16-13.27,4.56-3.3,7.87-8.35,14.13-9.41.48-.08.78-.94,1.26-1.32,3.1-2.54,4.12-8.7,10.32-5.93.64.29.81-.47,1-1.17.94-3.78,4.11-5.26,7.25-6.81C194,452,203.82,447.08,215,441.48c-2.78,0-3.94-.23-5,0-4.87,1.31-9.78,2.5-14.52,4.19a213.87,213.87,0,0,0-93,64.38C60.66,559.53,43.78,615.72,58.41,679.56c13,56.76,45.28,100.14,95.9,129,48,27.37,99.42,30,152.14,17.49,33.78-8,63.45-24.95,92-44.1,4.38-2.93,8.81-5.78,13.22-8.67-13.62,15.36-30,27-47.37,37.23-34.17,20.12-70.8,33.19-110.66,36.6-28.39,2.43-56-.84-82.48-11-35.58-13.59-64.21-36.76-86.86-67.14-25-33.59-41.13-70.83-44.76-113-3.94-45.9,7.18-88,31.55-126.72,4.5-7.14,9.73-13.82,14.54-20.59,2.79,1.38.79,3.76,2.69,5.13,4.67-3.37,6.82-9.32,11.85-12.47,4.86-3,4-5.45-1.38-6.59,1.43-2.71,3.8-3.58,5.59-5.11a3.09,3.09,0,0,0,.94,5c1.63.9,3.13-.83,4.23-2.24,1.42-1.83,2.86-3.65,4.31-5.5-1.52-2-3.63-1.23-5.45-1.5,1-2.46,3.56-5.84,5.23-3.45,3.33,4.8,4.76,1.2,6.89-.35,3.63-2.66,6.13-6.44,9.83-9.24,3.43-2.59,7.39-5.45,11-10.26-6.41,1.11-8.5,6.55-13.49,6.9C150.66,446.73,178.44,433.46,209,425a4.85,4.85,0,0,0-2.93-.9,22.73,22.73,0,0,0-3.29.3c-51.43,8.2-94.28,32.12-126.29,73-47.84,61.16-62.19,129.7-38.77,204.48,18.16,58,53.65,102.79,106.47,133.38,22.6,13.09,47.68,18.26,73.12,22.06a3.62,3.62,0,0,0,3-.83c1.57-2.09-2.84-1.7-1.74-4,2.42.72,5.19.68,6.42,3.64a3.78,3.78,0,0,0,4.46,2c6.72-1.29,13.47.12,20.16-.59,1.81-.19,4.47.31,2.85-3.31a2.42,2.42,0,0,1,2.37-3.2c2.27,0,1.69,1.94,2.18,3.31.4,1.13-2.1,2.5.25,3.08a2.65,2.65,0,0,0,3.39-2.35c.71-4.73,3.56-2.93,6.7-3.57,4.75-1,2.36,5.26,6.81,4.11,13.67-3.55,27.58-6.21,41.15-10.25,5.15-1.53,10.76-2.07,5.8-10.14,4.22.67,4.47,11.64,10.46,3.21-1.44-2.32-5.33,0-5.84-3.31-.42-2.69,2-.48,3.07-1.58,3.45-3.51,3.3.53,3.58,2.36.31,2,.63,3.59,3.14,2.87,2.82-.81,2.14-2.48,1.24-4.52-.57-1.32-2.54-2.88-.9-4.12,1.5,1,4.14,2,4.08,2.85-.58,6.86,3.14,2.51,4.88,1.84,4.55-1.75-.49-3.73,0-5.62.3-1.28-1.84-3.17.81-3.81,1.71-.42,1.17,1.42,1.77,2.11,1.4,1.57.53,6.49,4.87,3.82,2.75-1.7,8-2.3,4.9-8-.58-1-.22-2.59-.37-5.26,1.42,1.93,2.24,2.55,2.36,3.29,1,5.94,3.69,4.46,7.56,2.28C385.84,813,403.36,799.74,420.52,786c1.52-1.22,5.42-3.28-.37-4.21-1.32-.21-1-1.33-.45-2,.66-.81,1.74-2.08,2.72-1.25,7.12,6,7.32-2.92,11.2-4.16-1.58-2.6-5,.76-5-2.3,0-1.88,2.44-2.82,4.32-3.49l4.28-1.52c-1.52,1-3.24,2.42-1.81,4,1.61,1.75,3-.41,4.14-1.54,2.23-2.27,4.62-4.45,5.83-7.52,3.7-.61,4.55-4.4,7.07-6.37,3.22-2.52-4.07-2.63-1.39-5.39,2.16-2.23,4.2,3.42,6.51-.23,1.84-2.91,5.57-5,6.4-8,.78-2.83,8-2.81,3.35-7.58,3.1.76,4.69-1.6,6.13-3.43,6.91-8.78,13.62-17.7,20.39-26.58,18.23-24,34.53-49.12,47.21-76.5,2-4.4,4.24-8.8,5-15-1.47,1.83-2.18,2.64-2.81,3.51-13.82,18.9-27,38.31-41.56,56.58-33.7,42.25-72.92,78.49-119,107.12-34.31,21.31-71,35.56-111.37,39.24-69.54,6.34-127.07-16.67-169.34-72.93C66.2,699,56.2,645.88,72.76,588.46c9.19-31.86,28-58,50-82.21,1.45-1.6,2.93-3.52,5.61-2.25L115.7,518.52c-3.32,4.61-6.57,9.27-10,13.8-.76,1-2.43,1.63-.79,2.93.88.7,1.82.13,2.65-.93,2.06-2.64,4.4-5.05,6.6-7.57S118.66,521.89,115.68,518.51Zm446.46,160.1c-1.7-.29-2.33,1-2.88,2.14-7.63,15.55-18.67,28.75-29,42.42a6.44,6.44,0,0,0-1,6.17c-6.26-1.89-6.09,4.18-8.4,7-23.33,28.14-47.45,55.44-75.76,78.87-28.5,23.58-59.13,43.35-93.56,57.12-12.89,5.16-26.13,9.21-39.95,13.52,1.11.3,1.55.57,1.91.5,32.21-6.37,61.29-20.34,89.54-36.5,7-4,12.14-10.76,20.54-13.07,3.7-1,5.44-7.23,11-6.19-.09-3.39,1.73-3.88,4.49-3-1.82-7.68,4-3.06,6.54-3.53-1.58-4.94-1.55-4.67,3.46-5.38,3.05-.44,2.64-6.72,7.46-5-2.6-3.91-1.19-3.9,2.05-2.09.9-3.64,3.26-5.19,6.95-4.86-3.11-6.8,5-6.37,6.72-10.24,1.56-3.49,5-5,8.78-2.48,1-2.85-3.37-2.35-2.08-4.49,1.49-2.48,4,.53,5.91-.46-1.74-3-.12-6.36,3.58-8.68,1.9-1.2,5.24-1.15,5-4.7-.28-3.73,1.12-4,3.52-1.63.77.76,1.18,2.1,2.45.89a1.93,1.93,0,0,0,0-2.91c-1-1.14-2.12-2.32-.9-3.95,2.33-.58,2.94,2.34,4.85,2.4,1.8-2.46-3.57-3.08-1.23-5.62,2.05-2.22,3.69,1,5.67.73.63-2.38-3.41-3.54-.94-6,2.05-2.07,3.57-2.25,5.18.31a2.4,2.4,0,0,0,1.48-.63,2,2,0,0,0,.23-1.74c-.85-1.19-4.12-.94-2.43-3.58s4.17-.21,6-.28c1-1.35.08-1.62-.49-2.28-3.24-3.72,1.63-4.56,2.61-6.78.4-.91,1.36-2.84,2.74-.78.74,1.11,1,2.75,2.61,1.14.91-.89,1.23-1.79.34-3.39-1.73-3.11-1.43-3.65,1.93-3.61,2.62,0,2.36-1.84,2.49-3a28.38,28.38,0,0,0-.46-5.84c3,1.2,7.59,5.22,5.32-3-.13-.5.56-1.16.7-1.79,1.15-5.16,5.68,1.78,6.51-1.66.47-1.94-4.88-4.06.38-6.9,1.29-.69,4.83-2.58,5-5.11.31-4.15,6.7-5.68,4.28-10.72a5.21,5.21,0,0,1,1.29-.12c2.14.28,2.77-1.12,2.86-2.76.24-4.59,3.31-8.18,5.9-11,2.86-3.08,2.7-4.8.73-7.55,2.3-.4,5.94,1.29,6-2.92,0-3.25,2.14-5.15,3.41-7.62,4.16-8.09,8.26-16.21,12.38-24.32l-1.56-.81c-4.05,6.93-8.33,13.74-12.07,20.84C567.52,668.67,562.86,672.6,562.14,678.61ZM355.36,846c-3.52-.2-6.21,2-9.14,3.32-27.76,12.68-56.63,21.2-87.08,24.41-12.9,1.36-25.83.61-38.72,1.64a201.15,201.15,0,0,0,44,1.06c21.43-2,41.79-8.14,62.19-14.17,9.79-2.9,19.09-7.47,28.7-11.05,2.82-1,2.87-2.22,1.2-4.22,3.12,1.58,6.47,1,8.25-1.46,2.72-3.68,5.1-2.48,8-.16.64-2.37-2-4.71.45-5.85,1.86-.86,2.83,2.63,5.06,2,.62-1.79-2.36-4.54-.93-4.34,6.36.91,9.17-8.38,16-4.31-.68-4.43-.68-4.46,3.51-5,.65-.07.92,0,1.39-.74,1.81-3,2.17-3.15,4.33-.59,1.15,1.38,1.82,1.65,3.06.68.78-.61,2.46-1.64,1.11-2.43-7.61-4.48-.3-3.8,1.57-5.69,3.2-3.24,8.61-3.65,10.42-8.7.6-1.66,2.42-1.73,3.3.47.48,1.21.17,3.81,2.64,2.31,1.6-1,1.37-2.59-.28-3.75-2.06-1.44-1.75-3.21.13-4.15,2.6-1.3,2,1,2.22,2.44.15,1.18.85,2.48,2,1.89a15.3,15.3,0,0,0,4.55-3.66c.85-1-.17-1.84-1.13-2.57s-3.68,1-3.09-2a3.15,3.15,0,0,1,2.15-2.31c2.09-.83,2.65.54,3.34,2,1.09,2.32,3.58,3.17,4.31.75s6.76-2.4,2.68-6.34c-1.17-1.12-3.77-2.15-2-3.87s3,.83,4,2.14,1.94,2.56,3.59.9c1.26-1.26,1.82-2.69-.2-3.71s-3.2-1.88-1.39-4.4c2.11-2.93,3.87-1.11,5.48,0,1.17.83,2.26,3.12,3.44,1,2-3.55,6.61-4.43,7.79-8.49.07-.25-.72-1-1.2-1.12-2.22-.46-5.14-.68-2.8-3.89,1.59-2.18,3.43-1,4.67,1.05,1.08,1.73,2.43,1.65,3.84.36,1.73-1.58.72-2.86-.68-3.71-2.28-1.39-2.72-2.42-.3-4.29,1.8-1.39,2.73-2.72,4.07.46,1.41,3.34,2.74,1.15,4.15-.39,3.39-3.73,7-7.28,10.41-11,1.72-1.86,4.77-4-.44-5.45-2.48-.71-1.6-2.3-.35-3.36.73-.62,2.12-2.11,2.91.24,1.55,4.61,3.61,1.71,5,.1,3.63-4.17,6.69-8.87,10.58-12.75,2.74-2.74,4.07-4.51.22-7.12-.71-.48-1.7-1.79-.53-2.74a1.94,1.94,0,0,1,2.92.21c.9,1.39,1.81,2.87,3.51,1.46a2.85,2.85,0,0,0,.33-4.16c-.93-1.16-1.47-2.58-.4-3.57,1.55-1.43,2.15.46,2.9,1.37,1.11,1.36,2.52.43,2.48-.35-.43-7.43,9.94-10.18,7.84-18.37-.32-1.26,1.25-.44,1.91-.2,1.38.51,2.35,0,2.2-1.34-.58-5.32,9-6.92,4.86-13.43.37-.07.84-.32,1.08-.18,2.55,1.46,2.89-.72,3.73-2.17,5.86-10.16,11.8-20.27,17.58-30.47a205.86,205.86,0,0,0,15.42-32.61c-11.5,15.56-20.56,32.61-31.45,48.54-10.1,14.77-19.89,29.77-31.06,43.75-14.9,18.66-30.89,36.37-47.56,53.5-26.08,26.79-54.6,50.34-87.29,68.73C365.61,839.27,359.6,841.24,355.36,846ZM242.57,699.45c-11.12-3-20.7-8.83-29.32-15.88-22.53-18.46-30.7-43.16-29.45-71.54.41-9.55,2.58-18.82,5.1-28,.81-2.91,1.67-6.81,2.87-8.49,8.23-11.5,12.65-25.26,22.52-35.85,5.88-6.32,10.4-14,16.49-20.33,5-5.15,9.76-10.46,14.52-15.57.34.19.13,0,0,0a3,3,0,0,0-1.18.49c-33.56,27.31-60.21,59-64.57,104.26-3,30.72,3.85,58.66,27.56,80.12,28.25,25.57,62.22,30,98.07,23.42,39.59-7.23,71.29-28.42,97.58-58.38,26.62-30.33,45.43-65.61,64.29-100.86,5.06-9.45,5-9.52-3.7-15.45-38.72-26.33-77.63-52.36-119.21-74.11-3.5-1.83-6.16-1.77-9.82-.32a189,189,0,0,0-71.69,49.91C232.84,546,214,583.52,220,629.59c4.14,31.86,20.08,56.08,49.51,70.5,2.92,1.44,5.87,2.82,8.81,4.23a68.69,68.69,0,0,1-24.64-6.53c-18.79-9.09-32.54-23.65-40-43.13-10.68-27.75-9.93-55.73.87-83.4,2.53-6.48,5.45-12.8,8.19-19.2C192.86,587.67,180.87,657.91,242.57,699.45Zm.7-248.84c-4.25,1-8.59,1.79-12.74,3.13-52.94,17.07-95.34,47.89-125,95.54-16.24,26.1-25.38,54.24-26,85C77.81,722,144.71,789,219.9,803.14c47.75,9,93.4.7,136.67-19.9,74.56-35.51,128.29-92.38,165.46-165.5,2.73-5.38,4.31-11.34,6.75-17.91-3.19,1.6-3.95,3.79-5.15,5.55-26.9,39.43-54.65,78.11-89.44,111.31-37.41,35.68-80.17,61.44-130.92,72.45-47.18,10.23-92.8,6.18-134.74-19.7-65.44-40.4-93.75-116-64.9-187.84,18.28-45.54,50.94-79.49,91.57-106.17C210.39,465.46,226.69,457.73,243.27,450.61ZM249,465.22c-.82.2-1.66.33-2.46.6-57.2,19.25-100.3,55.26-126.28,109.86-19.28,40.51-19.61,82.07.79,122.66,18.27,36.35,48.62,59.35,85.7,74,7,2.77,14.25,5.29,22.15,6.24,4.79.58,10.78-.26,15.24,3.77,1.19,1.07,5.38,1.05,5.45.81,1.45-5.47,4.78-1.58,6.43-.9,2.89,1.19,5.39,2.62,8.73,1.7,6.58-1.82,13.45-.75,20.25-1.86,7.45-1.22,15.14-2.63,22.9-3,10.3-.57,18.84-8.92,29.77-8.34,3.44-7.62,11.9-6.47,17.8-9.45,23.82-12,46.25-26.11,65.82-44.06,34.29-31.46,62.36-67.88,82.74-109.93,2.68-5.55,5.32-11.15,6.48-17.31a86.38,86.38,0,0,0-5.54,7.44c-25.17,35.74-49.58,72-81.14,102.78-31.76,30.92-67.92,54-111.66,63.89-44.74,10.15-87.55,6.91-127.68-17.33-52-31.39-75.71-90.65-58.78-148.68,11.56-39.62,36.75-70,67.47-96.22C210.2,487.35,229.07,475.5,249,465.22Zm1.5,16.56c-40.27,19.58-74.09,46.57-97.25,85.26-29.77,49.73-26.41,105.27,10.19,145.76,42.75,47.29,105.36,59.59,159.37,42,21.38-7,41.69-16.67,59.9-30.13,52-38.47,87.73-89.52,113.57-148.09.35-.79,1.26-1.8-.35-2.73-.8,1.12-1.6,2.15-2.31,3.24-16.24,24.74-32.54,49.45-51,72.62-20.49,25.69-42.73,49.62-71.45,66.33-45.83,26.65-94.06,35.15-145.58,18.53-7.07-2.28-13-7.22-21.39-7.14-3.93,0-8.39-5.64-12.62-8.72A107.26,107.26,0,0,1,154,593.52c12.76-34.13,34.35-61.93,62-85.27C227.11,498.86,238.68,490.07,250.51,481.78ZM174,577.33c-1.77,3.52-3.63,7-5.3,10.57-19.39,41.6-9.37,90.52,25.07,119.36,36.26,30.35,78,35.29,122.51,24.35,11.92-2.93,23.55-6.7,34.65-12.65,10.66-5.71,21.29-11.29,30.89-18.6C423,669,451.07,627.49,472.5,581c.8-1.75,2.05-3.55,1.4-6.55-6.08,9.1-11.72,17.52-17.33,25.95-2.07,3.11-3.92,7.23-7.35,8.18-7.59,2.12-10.06,8.56-13.74,14-17.54,26.07-36.29,51.15-62.08,69.75-37.15,26.79-78.72,35.74-123.68,28.11-57.44-9.74-91.7-58.43-81.82-115.15C169.53,596,172.28,587,174,577.33ZM55.77,509.84c9.49-12.24,45-57,80.22-80a100.13,100.13,0,0,1,11-6.21c10-4.19,19.86-8.66,30.13-12.63a45.1,45.1,0,0,0-5.93,0c-44.43,6-80.88,26.74-110,60.39C40.65,495.15,27.1,522.74,18.89,553c-1.28,4.71-.93,6.54,2.85,7.5a5.19,5.19,0,0,0,5.74-2.42S46.28,522.07,55.77,509.84Zm545,145.61C562.87,725.16,517.58,789,454.3,838.4,520,790.92,565.8,727.51,600.78,655.45Zm42.38-25.2q-48.51-29-97-58A536.8,536.8,0,0,0,643.16,630.25Zm-539-93.75c-4.57,1.91-5.78,5.42-7,8.82-.14.39,1.32,1.86,1.46,1.78,3-1.64,3.52-5.2,5.5-7.69C104.45,539,104.19,538.2,104.19,536.5ZM27.48,558.09S47,522.57,55.77,509.84c22.2-32.08,45-57,80.22-80"/><path class="cls-1" d="M365,347c-23.8-25.15-48.47-49.18-74.28-72-32.6-28.83-65.82-56.9-100.64-83-37.82-28.4-77-54.8-118.06-78.31a10.73,10.73,0,0,1-1.7-1c-1.66-1.4-5.37-1.63-3.72-5.08,2-4.15,4.78-.73,6.61.14a507.53,507.53,0,0,1,48.65,26.92C186.77,175,246.53,222,303.65,272.69c31.92,28.3,62,58.5,93.31,87.44C455.5,414.3,518.38,462.56,587.44,502.79c51,29.69,102.25,58.72,155.25,84.57,52.75,25.74,105.82,50.89,160.8,71.66,28.67,10.84,57.47,21.36,87.5,28.06,1.36.31,6.22-.59,3.22,4-.09.14,2.24,2.79,3.46.68s2.34-2.9,4.54-1.38c1,.73.51,1.22.25,2.08-.9,2.88-3,1.94-4.88,1.74-17.4-1.84-34.23-6.29-50.93-11.28-51.5-15.39-101-35.78-149.52-58.84-34.87-16.57-70-32.65-104.53-49.85a15.65,15.65,0,0,0-4.8-1.4C712.94,588,739.19,601,764.24,616.41c-4.12-1.84-8.26-3.62-12.35-5.52-53.27-24.7-105.8-50.84-156.09-81.26a1179.61,1179.61,0,0,1-132.88-92.79q-59.18-48-121.33-92.14c-32.35-23.05-63.82-47.3-95.45-71.33a1133.87,1133.87,0,0,0-124.58-82.78c-9.78-5.57-19.43-11.38-29.13-17.09-2-1.19-5-2.08-3.32-5.28s4.56-1.67,6.86-.45c7.8,4.14,15.59,8.29,23.29,12.61,40.84,22.94,80.65,47.46,118.23,75.54,40.49,30.25,81.87,59.29,123.25,88.32C362.11,345.21,363.56,346.09,365,347ZM637.48,544.29l1.17-1.39-101.4-64.43-.86,1.36C568.15,504.35,602.4,525,637.48,544.29Z"/><path class="cls-1" d="M761.3,639.72l60.27,35.07c-10.39-3.09-19.61-8.47-29-13.47-38.4-20.39-76.71-41-115.27-61C619.45,570.2,563.67,536.7,509.15,501c-38.07-24.91-75.8-50.26-111.1-79.06Q317.92,356.6,232.17,298.8A1107,1107,0,0,0,87.88,216.58c-1.6-.76-3.21-1.51-4.72-2.4s-2.57-1.87-1.6-3.75c.76-1.48,1.86-2.64,3.64-2.16a39.32,39.32,0,0,1,6.23,2.18,1096.84,1096.84,0,0,1,124.86,66.82c67,41.63,132.27,85.74,194.6,134.06a1726.79,1726.79,0,0,0,241,157.07c38.09,20.47,76.67,40,115.14,59.79,46,23.58,91.91,47.18,139.15,68.08C950,715.66,994.25,734,1041,745.39a14.51,14.51,0,0,1,2.53.77c1.7.75,4.51.83,3.9,3.52s-3.12,2.71-5.42,2.38a234.89,234.89,0,0,1-35.36-8.39C940.08,723,876.35,695.46,814.17,664.09,796.91,655.37,779.91,646,761.3,639.72Z"/><path class="cls-1" d="M135,103.81c2.58-3.7,4.86-3.48,8.32-1.17,49,32.75,94.35,69.94,137.89,109.53,47.26,43,92,88.57,137.91,132.88,50,48.25,105.69,88.9,165.26,124.46,55.57,33.17,111.9,65,169.73,94,40.3,20.26,82.26,36.66,124.78,51.62,32.94,11.59,66.4,21.39,100.68,28.18,14.29,2.83,28.76,4.55,43.26,6,1.1.1,2.22,0,3.31.15,2.21.26,4.95.5,4.88,3.33s-2.56,3.28-5,3.12c-7.92-.54-15.87-.87-23.76-1.7-46.17-4.89-90.46-17.45-134.07-32.88s-86-34.41-128.55-52.56c-51.78-22.06-100.09-50.42-148.37-78.92-33.28-19.64-65.84-40.42-96.9-63.48C455.63,397.57,420.25,365,386.09,331c-34.44-34.28-67.54-69.88-102.77-103.4-46-43.78-94.95-84-145.88-121.82C136.74,105.25,136.07,104.68,135,103.81Z"/><path class="cls-1" d="M345.31,422.63c.74-1.45-.1-2-.32-2.79-.75-2.47-6.48-1.71-4.28-5,1.3-2,4.91.67,7,1.86,21.45,12.29,42.87,24.62,64.1,37.28C467.75,487.29,521,525,576.71,558.67c54.27,32.82,110.74,61.52,167.62,89.41,47,23,91.69,50.36,138.18,74.33,19.83,10.22,39.91,19.92,59.82,30,2.26,1.14,6.64,1.66,4.78,5.55-1.6,3.34-5,1.58-7.67.51-25.8-10.47-50.79-22.69-75.37-35.69C834.24,707,804.82,690.44,775,674.62c-13.8-7.33-28.08-13.74-42.43-20,27.24,17.1,56.08,31.51,82.38,50.25-6.69-3.75-13.53-7.25-20-11.3-14.62-9.11-30.09-16.63-45.46-24.27C710.37,649.8,671.22,630.41,633.13,609c-54.47-30.68-107-64.4-159.17-98.85-52.53-34.71-106.06-67.7-163.23-94.39-8-3.71-15.72-7.82-23.48-11.93-1-.54-3.48-.3-2.75-2.71.23-.78.79-1.91,1.38-2,1.62-.35,3.51.51,3.84,1.87,1,4.12,3.44,1.85,5.74,2.23,5.57.93,11,3,16.3,5.18C323,412.92,334.16,417.86,345.31,422.63Z"/><path class="cls-1" d="M61,251.52c6.75-5.2,13.34-.2,19.21,1.43,40.85,11.34,78.93,29.48,116,49.8C265.74,340.94,332.3,384,397.44,429.17a434.87,434.87,0,0,1,38.95,30.69c-8.88-5.05-17.8-10-26.63-15.17C356,413.31,304.45,378.3,251.33,345.86c-53.78-32.83-108.88-63-167.84-85.73-7.45-2.87-15.69-3.76-22.28-8.78Z"/><path class="cls-1" d="M450.78,298.8c4-7.85,7-14.28,10.44-20.53,19.75-36.33,44.72-69,70.43-101.22,6.72-8.41,13.33-17.24,23.11-22.53,2.15-1.16.72-2,.63-3-.16-1.72.1-3.47,2.25-2.9,1.6.43,3.53-1,4.78.86,1.13,1.69,0,2.76-1,4-33.42,39.62-64.19,81.23-93.14,124.2-4.43,6.58-9.22,12.92-13.9,19.34C454,297.51,453.25,297.63,450.78,298.8Z"/><path class="cls-1" d="M869.06,472.49c.53-5.43,2.14-8.08,7.11-5.56,2.31,1.18,3-.1,3.35-2,.47-2.28,2.33-2.33,4.1-2.33,1.38,0,1.85,1,1.9,2.19.09,2-1.67,2.54-3,3C878.37,469.41,874.08,470.77,869.06,472.49Z"/><path class="cls-1" d="M937.64,400.34c-1,1.14-1.76,2.36-2.82,3-4.25,2.42-8.57,4.67-12.07,8.21a1.88,1.88,0,0,1-2.9-.22c-.83-1.26.59-1.78,1.34-2.45,4.16-3.77,10-5.43,13.21-10.4a1.65,1.65,0,0,1,1.6-.21A10.27,10.27,0,0,1,937.64,400.34Z"/><path class="cls-1" d="M994.09,295.57c-3.57,0-5-1.58-3.14-4.91,1.49-2.65,3.36-5.08,5-7.62.67-1,1.68-1.76,2.68-1.09a1.91,1.91,0,0,1,.14,3.31c-3.68,2.6-4.5,6.42-4.91,10.51Z"/><path class="cls-1" d="M955.6,341.37c-.89,3.48-2.67,5.72-6,6.31-1.15.21-1.87-1.08-1.51-1.56a42.74,42.74,0,0,1,5.79-6.44C954.5,339.14,955.82,340.29,955.6,341.37Z"/><path class="cls-1" d="M935.43,357.46c2.82-3.2,4.75-5.48,6.8-7.67,1-1.08,2.47-2.56,3.75-1.1s-.53,3.14-1.64,3.6C941.45,353.46,940.8,358,935.43,357.46Z"/><path class="cls-1" d="M984.8,359.16c-1.61-.22-3,2.72-4.58.61-1.31-1.81.63-3.28,1.64-4.44,1.29-1.49,2.17-3.81,5.86-3.76-1.14,2.87-2.13,5.34-3.12,7.81C984.59,359.38,984.8,359.16,984.8,359.16Z"/><path class="cls-1" d="M948.76,387.41c.09,2.29-6.22,11.31-8,11.42a1.61,1.61,0,0,1-1.18-.41c-1.07-1.12.15-1.89.52-2.8,1.65-4.06,7-4.15,8.69-8.19Z"/><path class="cls-1" d="M1003.57,384.33c-1.82-.73-4.38,3.3-5.73-1.09-1-3.14,1.64-4.16,3.13-4.95,2.87-1.51,4.12-.28,2.8,3a12.28,12.28,0,0,0-.36,3.25Z"/><path class="cls-1" d="M860.49,471.49c-.76-3,1.82-2.91,3.5-3.45s2.85.13,3,2.23c.2,2.92-1.91,3-3.82,3.44S860.11,473.79,860.49,471.49Z"/><path class="cls-1" d="M1004.39,269.59c1.49,2.48-.22,4.54-.89,6.75-.48,1.61-.62,4-3.14,2.82-2.09-1-1.25-3.1-.39-4.56,1.13-1.93,1.49-4.77,4.62-4.82Z"/><path class="cls-1" d="M962.73,337.72c-1.77-.66-4.48,1.81-5.25-.54-1-3.16,2.63-4.52,3.89-7,3.58,2.41.81,5.26,1.11,7.76Z"/><path class="cls-1" d="M782.67,446.75c-2,.5-2.81-.16-3-1.33a3,3,0,0,1,.47-2.36c1.19-1.1,1.42.28,2.22.92,2.09,1.68,2.72-.76,3.62-1.93.62-.8.84-2.46,2.18-1.38a1.81,1.81,0,0,1-.3,3.21Z"/><path class="cls-1" d="M731.77,123.79c-1.72,2.14-4.58,3-7.29,3.89-1,.35-2.86-.59-2.52-1.4,1.35-3.23,5.31-2.79,7.72-4.76C730.35,121,731.73,121.87,731.77,123.79Z"/><path class="cls-1" d="M704.83,139.43a14.91,14.91,0,0,1-7.33,4.38c-1.06.24-1.61-1.27-1.21-1.79,1.57-2.07,3.12-4.4,5.75-5.09C702.69,136.75,703.85,138.51,704.83,139.43Z"/><path class="cls-1" d="M610.85,249.88c.48-3.09,3.63-4.17,4.87-6.7a1.7,1.7,0,0,1,2.76-.35,1.72,1.72,0,0,1-.3,2.79C615.67,246.91,614.24,250.07,610.85,249.88Z"/></g></g></svg>