<svg xmlns="http://www.w3.org/2000/svg" viewBox="0 0 2689.38 558.21"><defs><style>.cls-1{fill:#0b5494;}</style></defs><g id="Layer_2" data-name="Layer 2"><g id="Layer_1-2" data-name="Layer 1"><path class="cls-1" d="M1093.77,350.61V150.72c0-2.1.07-4.21.16-6.31a2.19,2.19,0,0,1,2.07-2c.88-.07,1.75-.13,2.63-.13,5.61,0,11.22.08,16.83-.05a11.56,11.56,0,0,1,7.32,2.34,50.51,50.51,0,0,0,49.53,4.31c2.07-.93,4-2.08,6.07-3.13a137.85,137.85,0,0,1,29.8-11.63,102.28,102.28,0,0,1,17.07-2.87c4.72-.36,9.44-.95,14.17-.56,6.81.56,13.64.68,20.44,1.55a166,166,0,0,1,26.71,5.54A125.36,125.36,0,0,1,1330,160.7a104.37,104.37,0,0,1,31,41.83,145.55,145.55,0,0,1,8.9,31.81,223.07,223.07,0,0,1,2.82,45.58c-.26,6.82-.78,13.64-1.64,20.43a178,178,0,0,1-5.51,27.27,122.28,122.28,0,0,1-15.67,34.29,113,113,0,0,1-36.16,33.9,133.64,133.64,0,0,1-37.37,15.11,169.57,169.57,0,0,1-22.23,3.92,181.22,181.22,0,0,1-31,1.14,103.05,103.05,0,0,1-25.79-4.66q-14-4.59-27.93-9.22c-1-.33-2-.58-3-.81a1.42,1.42,0,0,0-1.78,1.39c-.06,1.93-.1,3.86-.1,5.78q0,71,0,142c0,1.93,0,3.86-.08,5.79,0,1.18-.76,1.8-2.07,1.87q-1,.06-2.1.06h-62.08a21.79,21.79,0,0,1-3.12-.28,1.15,1.15,0,0,1-.71-.66,7.17,7.17,0,0,1-.48-2c-.08-1.93-.06-3.86-.06-5.79Zm70.7-75.53V349.2c0,1.58,0,3.15,0,4.73a2.93,2.93,0,0,0,1.85,2.88c9.53,4.41,19,8.87,29.15,11.9a89.05,89.05,0,0,0,31.11,3.86c1.75-.11,3.51-.1,5.24-.37a68,68,0,0,0,20.9-6.72,74.14,74.14,0,0,0,23.89-20.22,94.74,94.74,0,0,0,15.81-30.64c4-12.81,5.57-26,6-39.34a150.07,150.07,0,0,0-3-34.48,96.65,96.65,0,0,0-9.87-27.58C1276,195.88,1262,183.84,1243,177.84a85.19,85.19,0,0,0-28-3.78,65.87,65.87,0,0,0-13.5,1.83,74,74,0,0,0-20.4,8.18c-5,2.91-9.78,6.16-14.67,9.24a4.1,4.1,0,0,0-2,4c.07,1.58,0,3.15,0,4.73Z"/><path class="cls-1" d="M1472.35,206.32V13.26c0-1.58,0-3.16,0-4.74,0-4.29.05-4.22,4.33-4.62,5.24-.5,10.49-.67,15.74-1,8.23-.46,16.44-1.11,24.66-1.67,1.75-.11,3.5-.13,5.25-.24,3.85-.24,7.7-.52,11.54-.76,1.93-.12,3.86-.22,5.78-.26,2.39,0,3,.57,3.07,3.14.07,1.93,0,3.86,0,5.79q0,65.22,0,130.46c0,1.92,0,3.85,0,5.78a14,14,0,0,0,.17,1.57,1.64,1.64,0,0,0,1.86,1.39c1.51-.46,3-.94,4.5-1.46,8.76-3,17.54-6.08,26.29-9.18a113.57,113.57,0,0,1,23.43-5.73c7.82-1,15.69-1.71,23.6-.78,1.74.2,3.5.25,5.25.35a152.71,152.71,0,0,1,43.66,8.61,121.53,121.53,0,0,1,44,27.12,103.33,103.33,0,0,1,23.66,35.06,145.51,145.51,0,0,1,8.37,28.15c3,15.39,3.79,31,3.49,46.58-.06,3.33-.2,6.66-.34,10-.28,6.13-1.07,12.21-1.92,18.29a158.8,158.8,0,0,1-5.47,24.59,119,119,0,0,1-17.51,35.71,114.49,114.49,0,0,1-35.58,31.49,134.58,134.58,0,0,1-35.06,13.91,165.8,165.8,0,0,1-22.74,4A180.32,180.32,0,0,1,1602,416a102.73,102.73,0,0,1-41.3-11.15c-1.87-1-3.71-2-5.58-2.94a49.3,49.3,0,0,0-22.22-5.63,51,51,0,0,0-30.55,9.68c-2.52,2.59-5.61,3.11-9.11,3-5.43-.22-10.87-.05-16.31-.07-1,0-2.1-.11-3.14-.19a1.62,1.62,0,0,1-1.31-1.41c-.06-.7-.12-1.4-.13-2.1,0-1.75,0-3.51,0-5.26Zm70.44,68.47q0,36.54,0,73.06c0,1.76,0,3.51,0,5.26a4,4,0,0,0,2.64,4.08c5.32,2.27,10.57,4.66,15.87,7a116.94,116.94,0,0,0,12.34,4.43,97.42,97.42,0,0,0,15.87,3.52,91,91,0,0,0,15.75.47,58.52,58.52,0,0,0,12.42-1.93,65.88,65.88,0,0,0,29.41-16.59A88.31,88.31,0,0,0,1669,320.41a123.3,123.3,0,0,0,7.5-37.44c.28-6,.2-11.91.17-17.87a123.94,123.94,0,0,0-3.36-27.05,94.21,94.21,0,0,0-10.13-26.37c-10.24-17.66-25.05-29.42-44.86-34.75a88.54,88.54,0,0,0-25-2.86,66,66,0,0,0-13.5,1.8,76.56,76.56,0,0,0-23.55,10.06c-2.52,1.58-5,3.28-7.41,5-6.75,4.68-6.06,3-6.07,11.35Q1542.74,238.53,1542.79,274.79Z"/><path class="cls-1" d="M278.83,204.91q0,97.83,0,195.64c0,2.27-.15,4.54-.27,6.81a1.68,1.68,0,0,1-1.42,1.33c-.69.07-1.39.16-2.09.17-6.13,0-12.27,0-18.41,0a6.56,6.56,0,0,1-4.75-1.78,42.33,42.33,0,0,0-3.75-2.88,50.39,50.39,0,0,0-49-5.31c-2.08.93-4.12,1.94-6.15,2.95a138.56,138.56,0,0,1-26.88,10.47,132,132,0,0,1-15.45,3,114.24,114.24,0,0,1-21,.69c-15.09-.67-30-2.71-44.46-7.24a124.69,124.69,0,0,1-45.19-25,102.89,102.89,0,0,1-26.25-35.1A142.83,142.83,0,0,1,3.22,314.06,225.29,225.29,0,0,1,.31,263.25a185.76,185.76,0,0,1,7.13-44.52,121.44,121.44,0,0,1,17.33-36.37A114.36,114.36,0,0,1,62.3,149.22,133.31,133.31,0,0,1,97.5,135.7a171.74,171.74,0,0,1,20.17-3.48,210,210,0,0,1,25.17-1.55A109.06,109.06,0,0,1,178,136.31c8.44,2.91,16.93,5.67,25.41,8.46,4.85,1.59,5,1.44,5.08-3.55,0-1.4,0-2.8,0-4.2V11.85c0-1.93,0-3.86.07-5.78a1.86,1.86,0,0,1,2-2c4.9-.34,9.77-1,14.69-1.06,3.15-.06,6.29-.41,9.44-.63.52,0,1-.12,1.57-.15,8.05-.44,16.1-.86,24.14-1.32,3.15-.18,6.29-.49,9.44-.66,2.45-.13,4.9-.15,7.35-.19a1.61,1.61,0,0,1,1.41,1.31,18.4,18.4,0,0,1,.24,2.08c0,1.93,0,3.86,0,5.79Zm-70.37,66.5q0-37.05,0-74.12c0-1.75-.06-3.5-.2-5.24a2.44,2.44,0,0,0-.74-1.33,4.26,4.26,0,0,0-1.31-.84c-7.81-3.55-15.55-7.27-23.67-10.08-11.34-3.92-22.95-6.21-35-5.71a66.3,66.3,0,0,0-43.76,19.13,89.84,89.84,0,0,0-22,34.79C77,241.34,75,255.17,74.49,269.23a156.29,156.29,0,0,0,.67,21.52,140.15,140.15,0,0,0,3.51,20.69,91.3,91.3,0,0,0,10.87,26.08c12.85,20.54,31.6,31.73,55.42,34.72a95.52,95.52,0,0,0,15.23.36,60.35,60.35,0,0,0,12.94-2A78.15,78.15,0,0,0,196,360.29c2.51-1.61,5-3.29,7.41-5,5.7-4,5-2.53,5-9.76Q208.5,308.48,208.46,271.41Z"/><path class="cls-1" d="M2324,276.12q0,62.86,0,125.73c0,2.09-.16,4.19-.28,6.28a1.71,1.71,0,0,1-1.36,1.42c-.87.08-1.75.16-2.62.16-5.44,0-10.88-.09-16.31.06a7,7,0,0,1-5.57-2.36c-1.59-1.63-3.27-3.17-4.92-4.75s-3.27-3.18-4.93-4.74a49.72,49.72,0,0,0-24.32-12.86,48.26,48.26,0,0,0-16.71-.82,56.72,56.72,0,0,0-19.83,6.53A281.87,281.87,0,0,1,2192.37,407a201.48,201.48,0,0,1-33.21,9.81,119.48,119.48,0,0,1-19.78,2.63c-1.4.05-2.8.18-4.19.33a74.54,74.54,0,0,1-14.71,0c-1.74-.18-3.49-.28-5.24-.39a94.86,94.86,0,0,1-27.17-5.64c-14.52-5.31-25.74-14.69-34-27.7a95.84,95.84,0,0,1-12.25-28.91,132.18,132.18,0,0,1-3.52-23.36c-.46-7.35-.58-14.71-.58-22.07q0-80.76,0-161.51c0-1.92.06-3.85.14-5.78a2.19,2.19,0,0,1,2.07-2c1.22-.08,2.45-.13,3.67-.13h58.93c1.06,0,2.11,0,3.16.08,1.82.11,2.61.86,2.66,2.55s0,3.51,0,5.26q0,78.12,0,156.25c0,3.33-.05,6.67.14,10A66.46,66.46,0,0,0,2117,346a48.71,48.71,0,0,0,31.64,24.19,64,64,0,0,0,19.28,2.08,103,103,0,0,0,12.52-1.43c20.26-3.72,39.62-10.32,58.42-18.65,3.53-1.56,7-3.22,10.5-4.85.95-.44,1.89-.93,2.79-1.45a2,2,0,0,0,1-1.73c.07-1.75.13-3.5.13-5.26q0-31.82,0-63.65,0-62.61,0-125.21c0-1.92,0-3.85.11-5.78a2,2,0,0,1,1.72-1.71c1.75-.12,3.5-.22,5.25-.22q23.94,0,47.88,0c3.5,0,7,0,10.52,0,1,0,2.1.08,3.15.16a2.18,2.18,0,0,1,1.82,1.65,18.25,18.25,0,0,1,.2,2.09c0,1.57,0,3.15,0,4.73Z"/><path class="cls-1" d="M2589.21,281.23h-92.59c-1.92,0-3.85.11-5.77.19a1.58,1.58,0,0,0-1.13,1.52c.34,1.35.66,2.72,1.09,4.05q4,12.51,8.09,25c8.55,26.11,26.18,43.41,51.71,52.89a108.67,108.67,0,0,0,24.52,5.61,142.91,142.91,0,0,0,18.37.94c7.36,0,14.7-.22,22.06-.83,5.76-.48,11.52-1,17.28-1.47,4.36-.36,8.7-1,13-1.59,3.12-.41,6.23-.9,9.36-1.33,9.37-1.29,18.66-3,27.87-5.15a41.26,41.26,0,0,1,4.65-.85c.34,0,.94.53,1.09.95a5.67,5.67,0,0,1,.25,2.06q-.2,13.41-.44,26.82a8,8,0,0,1-.26,2.08,2.45,2.45,0,0,1-.85,1.25,29.4,29.4,0,0,1-3.21,1.77,160.3,160.3,0,0,1-21.53,8.36,273.35,273.35,0,0,1-35.69,8.67c-6.4,1.1-12.81,2-19.25,2.66a254.84,254.84,0,0,1-38.87,1.07c-7.7-.41-15.4-1-23-2.05-17.23-2.48-34-6.6-50.09-13.42a133.75,133.75,0,0,1-33.73-20.14,120.49,120.49,0,0,1-40.62-64.8,147.67,147.67,0,0,1-4.39-32.22c-.17-7.19-.24-14.39.26-21.56,1.82-26.17,9-50.6,23.9-72.48a126,126,0,0,1,50.06-43,147.11,147.11,0,0,1,40.4-12.88,155.34,155.34,0,0,1,18.26-2.1c4.72-.22,9.43-.81,14.17-.62,12.45.51,24.8,1.58,36.92,4.78a109.4,109.4,0,0,1,48.37,27.47,115,115,0,0,1,24.5,34.54,157.51,157.51,0,0,1,12.41,39.48,209.24,209.24,0,0,1,2.94,40.83,6.45,6.45,0,0,1-.27,2.06,2.22,2.22,0,0,1-1,1.09,3.55,3.55,0,0,1-1.53.31c-1.57.05-3.15.05-4.73.05Zm-29.86-10.92h49.44c3.69,0,7.37,0,11.05,0a10.26,10.26,0,0,0,2.6-.28,1.76,1.76,0,0,0,1-1,9.27,9.27,0,0,0,.36-2.57c0-7.54,0-15.08,0-22.62a55.82,55.82,0,0,0-.55-7.86,76.05,76.05,0,0,0-16.57-37,55.24,55.24,0,0,0-19.3-15.12c-9.54-4.56-19.66-6.18-30.15-5.82a55.85,55.85,0,0,0-7.33.56,60.84,60.84,0,0,0-22.92,8.75,72.27,72.27,0,0,0-21.53,21.3,62.91,62.91,0,0,0-10.84,36.19c.08,6.13.27,12.27.45,18.4,0,1.57.2,3.15.38,4.71a2.2,2.2,0,0,0,2.36,2.28c1.75.06,3.5.08,5.25.08Z"/><path class="cls-1" d="M550.61,281.23H458.53c-8.51,0-8.15-.57-5.52,7.47,2.5,7.66,4.93,15.35,7.41,23,8.45,26.17,26,43.53,51.53,53.1a109.6,109.6,0,0,0,24.52,5.66c10.67,1.38,21.35.94,32,.72,4.85-.71,9.76-.94,14.62-1.65a229.24,229.24,0,0,0,22.67-4.45c6.29-1.58,12.46-3.55,18.6-5.63.83-.28,1.66-.53,2.5-.75a1.9,1.9,0,0,1,1.85.72,20.53,20.53,0,0,1,1,1.87q6.64,16,13.25,32.07c.13.32.28.64.4,1a1.75,1.75,0,0,1-.76,2.25c-1.26.6-2.53,1.19-3.82,1.73a190.34,190.34,0,0,1-20.35,7,257.13,257.13,0,0,1-32.78,7.39c-7.78,1.21-15.62,2-23.49,2.65-9.29.75-18.57.75-27.86.63-2.8,0-5.6-.32-8.4-.5-1.74-.12-3.49-.24-5.24-.38-24-1.86-47.07-7.09-68.93-17.29a127.59,127.59,0,0,1-27.58-17.24A120.67,120.67,0,0,1,383.24,316a148.45,148.45,0,0,1-3.47-19.12,192.19,192.19,0,0,1-.64-36.76,146.11,146.11,0,0,1,10.24-45.45c13-31.73,34.85-55.11,66.05-69.59a146.29,146.29,0,0,1,38-11.73,140.73,140.73,0,0,1,17.73-2.06c3.68-.13,7.35-.59,11-.62a183,183,0,0,1,24.63,1.65,120.14,120.14,0,0,1,25,5.94A108.61,108.61,0,0,1,611.17,163a115.62,115.62,0,0,1,25.14,36A158,158,0,0,1,648,237a210.88,210.88,0,0,1,2.91,40.84c0,.52-.07,1.05-.12,1.57A2.2,2.2,0,0,1,649,281.1a14,14,0,0,1-1.57.11c-1.58,0-3.16,0-4.74,0Zm-29.68-10.92h56.81c1.58,0,3.16,0,4.74-.05A4,4,0,0,0,584,270a2.22,2.22,0,0,0,1.08-1,5.67,5.67,0,0,0,.35-2c0-8.41,0-16.83-.11-25.24a39.7,39.7,0,0,0-.46-5.76A76.18,76.18,0,0,0,569,199.82a56.2,56.2,0,0,0-26.28-18.5A67.6,67.6,0,0,0,521.5,178a58.6,58.6,0,0,0-32.44,9.09,70.92,70.92,0,0,0-18.6,16.87c-9.59,12.33-14.59,26.23-14.24,41.94.12,5.61.25,11.22.42,16.82.06,1.75.22,3.5.41,5.24a2.2,2.2,0,0,0,2.34,2.3c1.75.06,3.5.08,5.25.08Z"/><path class="cls-1" d="M896.82,281.23H804.25c-1.93,0-3.85.11-5.78.2-.48,0-1.19,1.06-1.09,1.57a20.22,20.22,0,0,0,.45,2.05c3.1,9.67,6,19.41,9.37,29,8.84,25.1,26.3,41.73,51.07,50.86a110.24,110.24,0,0,0,24.53,5.59,166.4,166.4,0,0,0,32,.58,201.44,201.44,0,0,0,53.37-10.89c1.48-.52,3-1,4.49-1.46a2,2,0,0,1,2.25.92c.24.47.46,1,.66,1.43l13.29,32q.3.74.57,1.47a1.59,1.59,0,0,1-1,2.12c-1.27.59-2.56,1.14-3.85,1.67a214.2,214.2,0,0,1-24.89,8.29c-9.12,2.54-18.38,4.43-27.69,6-3.62.62-7.32.82-10.94,1.45-5.89,1-11.88.86-17.79,1.63a37.28,37.28,0,0,1-4.73.23c-5.78,0-11.57.11-17.35,0-3.33,0-6.65-.37-10-.57l-3.67-.27A201.05,201.05,0,0,1,804.86,401a132.28,132.28,0,0,1-34-19.78,120.43,120.43,0,0,1-41.53-64.8,151.24,151.24,0,0,1-4.45-29,200.42,200.42,0,0,1,.3-28.37c2.13-26.18,9.87-50.43,25.22-72A125.89,125.89,0,0,1,799,146.19a147.3,147.3,0,0,1,40.4-12.86,153.06,153.06,0,0,1,18.25-2.09c4.55-.2,9.08-.8,13.65-.63,12.62.48,25.15,1.55,37.43,4.81,21.5,5.7,39.36,17.16,54.19,33.55,9.87,10.91,17,23.5,22.43,37.15a161.61,161.61,0,0,1,8.9,32.36A223.38,223.38,0,0,1,997,277.22c0,.7-.06,1.4-.12,2.1a2.26,2.26,0,0,1-1.74,1.75c-1.22.09-2.44.15-3.67.15-5.78,0-11.57,0-17.35,0Zm-29.64-10.92H923c1.57,0,3.15,0,4.73,0,.7,0,1.4-.1,2.09-.17a2,2,0,0,0,1.64-1.78c.05-.53.1-1,.1-1.58q0-12.09,0-24.19a56.16,56.16,0,0,0-1.61-12,76.06,76.06,0,0,0-14.36-30.13,56.44,56.44,0,0,0-28-19.58A68,68,0,0,0,867.81,178a58.35,58.35,0,0,0-27,5.9,69.17,69.17,0,0,0-24.2,19.84C807,216,802,229.88,802.25,245.59c.12,6.49.31,13,.49,19.46,0,1.05.14,2.1.27,3.14a2.23,2.23,0,0,0,2.09,2q2.63.12,5.25.12Z"/><path class="cls-1" d="M1921.29,204.33q0,98.32,0,196.66c0,2.1-.09,4.2-.17,6.3a1.57,1.57,0,0,1-1.33,1.39c-1.22.08-2.44.18-3.66.18q-30,0-60,0c-1.22,0-2.44-.1-3.66-.19a1.67,1.67,0,0,1-1.34-1.4c-.07-.69-.16-1.39-.18-2.09,0-1.4,0-2.8,0-4.2q0-194.57,0-389.12c0-2.1.12-4.2.21-6.3a1.57,1.57,0,0,1,1.38-1.35c4.36-.37,8.72-.74,13.09-1.06,4-.3,8-.54,12.06-.79,1.58-.1,3.15-.19,4.73-.25,4.38-.15,8.76-.25,13.11-.82,1.91-.25,3.85-.17,5.78-.29,3.67-.22,7.34-.52,11-.72,2.45-.13,4.9-.16,7.35-.2a1.5,1.5,0,0,1,1.41,1.29c.07.69.16,1.39.17,2.09,0,1.75,0,3.5,0,5.26Q1921.3,106.52,1921.29,204.33Z"/></g></g></svg>